<?xml version="1.0" encoding="utf-8"?>
<!-- Generator: Adobe Illustrator 21.0.0, SVG Export Plug-In . SVG Version: 6.00 Build 0)  -->
<svg version="1.1" id="Layer_1" xmlns="http://www.w3.org/2000/svg" xmlns:xlink="http://www.w3.org/1999/xlink" x="0px" y="0px"
	 viewBox="0 0 612 792" style="enable-background:new 0 0 612 792;" xml:space="preserve">
<style type="text/css">
	.st0{fill:#273248;}
	.st1{fill:#435070;}
	.st2{fill:none;}
</style>
<g>
	<polygon class="st0" points="378.5,353.8 378.5,395.2 308.1,438 308.1,400.2 346.5,376.6 	"/>
	<polyline class="st0" points="369.1,305.8 340.9,328.1 371.6,349.3 400,326.8 	"/>
	<polyline class="st1" points="308.1,353.9 378.5,395.2 378.5,353.8 340.9,328.1 340.9,286.5 400,326.8 400,285.1 308.1,222.3 	"/>
	<line class="st2" x1="308.1" y1="353.9" x2="308.1" y2="222.3"/>
	<polyline class="st1" points="216.2,326.8 244.6,349.3 275.3,328.1 247.1,305.8 	"/>
	<polygon class="st1" points="257.3,368.8 237.7,395.2 308.1,438 308.1,400.2 	"/>
	<polyline class="st0" points="308.1,353.9 237.7,395.2 237.7,353.8 275.3,328.1 275.3,286.5 216.2,326.8 216.2,285.1 308.1,222.3 	
		"/>
</g>
<g>
	<path class="st0" d="M100.1,502.5v-39.7h13.7c3.8,0,7.2,0.8,10.2,2.4c3,1.6,5.4,3.8,7,6.7c1.7,2.9,2.5,6.1,2.6,9.7v1.8
		c0,3.6-0.8,6.9-2.5,9.8c-1.7,2.9-4,5.1-7,6.8c-3,1.6-6.3,2.4-10,2.5H100.1z M110.4,470.2v24.9h3.6c2.9,0,5.2-1,6.8-2.9
		s2.4-4.9,2.4-8.7v-1.7c0-3.8-0.8-6.7-2.4-8.7s-3.9-2.9-6.9-2.9H110.4z"/>
	<path class="st0" d="M165.4,485.6h-16.2v9.5h19.1v7.4h-29.4v-39.7h29.4v7.4h-19.2v8.4h16.2V485.6z"/>
	<path class="st0" d="M199.4,486.7h-16.6v15.8h-10.3v-39.7H201v7.4h-18.3v9.1h16.6V486.7z"/>
	<path class="st0" d="M231.8,485.6h-16.2v9.5h19.1v7.4h-29.4v-39.7h29.4v7.4h-19.2v8.4h16.2V485.6z"/>
	<path class="st0" d="M274.5,502.5h-10.2l-15.1-24.7v24.7h-10.3v-39.7h10.3l15.1,24.7v-24.7h10.3V502.5z"/>
	<path class="st0" d="M303,491.9c0-1.4-0.5-2.5-1.6-3.3s-2.9-1.6-5.6-2.4c-2.7-0.8-4.9-1.6-6.6-2.4c-5.5-2.5-8.3-6-8.3-10.4
		c0-2.2,0.7-4.1,2.1-5.8c1.4-1.7,3.3-3,5.8-3.9c2.5-0.9,5.4-1.4,8.5-1.4c3.1,0,5.8,0.5,8.2,1.5c2.4,1,4.3,2.5,5.7,4.3s2,4,2,6.4H303
		c0-1.6-0.5-2.9-1.6-3.8c-1.1-0.9-2.5-1.3-4.3-1.3c-1.8,0-3.3,0.4-4.4,1.1s-1.6,1.7-1.6,2.9c0,1,0.6,1.9,1.8,2.8
		c1.2,0.8,3.2,1.7,6.2,2.6s5.4,1.8,7.3,2.8c4.6,2.5,6.9,5.9,6.9,10.2c0,3.5-1.4,6.2-4.2,8.2s-6.7,3-11.6,3c-3.5,0-6.6-0.6-9.4-1.7
		c-2.8-1.2-4.9-2.7-6.3-4.7s-2.1-4.3-2.1-6.9H290c0,2.1,0.6,3.7,1.8,4.7s3.1,1.5,5.8,1.5c1.7,0,3-0.3,4-1
		C302.5,494.1,303,493.2,303,491.9z"/>
	<path class="st0" d="M345,485.6h-16.2v9.5H348v7.4h-29.4v-39.7H348v7.4h-19.2v8.4H345V485.6z"/>
</g>
<g>
	<path class="st0" d="M383.5,488.5l5.7,1.3c-1.2,4.3-3.3,7.7-6.4,9.9s-6.9,3.4-11.4,3.4c-4.6,0-8.4-0.9-11.3-2.6s-5.1-4.3-6.6-7.6
		c-1.5-3.3-2.3-6.9-2.3-10.7c0-4.2,0.9-7.8,2.6-10.9c1.7-3.1,4.1-5.4,7.3-7.1c3.2-1.6,6.6-2.4,10.4-2.4c4.3,0,7.9,1,10.8,3.1
		s5,4.9,6.1,8.6l-5.6,1.2c-1-2.9-2.4-5-4.3-6.3c-1.9-1.3-4.3-2-7.1-2c-3.3,0-6.1,0.7-8.3,2.2c-2.2,1.5-3.8,3.4-4.7,5.9
		c-0.9,2.5-1.3,5-1.3,7.7c0,3.4,0.5,6.4,1.6,8.9c1.1,2.5,2.7,4.4,5,5.7c2.2,1.3,4.7,1.9,7.3,1.9c3.2,0,5.9-0.9,8.1-2.6
		C381.2,494.4,382.7,491.8,383.5,488.5z"/>
	<path class="st0" d="M394.4,483c0-6.6,1.9-11.8,5.7-15.6s8.8-5.6,14.8-5.6c4,0,7.5,0.9,10.7,2.6s5.6,4.2,7.3,7.4
		c1.7,3.2,2.5,6.7,2.5,10.7c0,4.1-0.9,7.7-2.6,10.9c-1.8,3.2-4.2,5.6-7.5,7.3c-3.2,1.6-6.7,2.5-10.4,2.5c-4,0-7.7-0.9-10.8-2.7
		s-5.6-4.3-7.2-7.4S394.4,486.5,394.4,483z M400.3,483.1c0,4.8,1.4,8.6,4.2,11.4c2.8,2.8,6.3,4.2,10.5,4.2c4.3,0,7.8-1.4,10.6-4.2
		c2.8-2.8,4.1-6.8,4.1-11.9c0-3.3-0.6-6.1-1.8-8.5c-1.2-2.4-2.9-4.3-5.2-5.6s-4.8-2-7.7-2c-4,0-7.5,1.3-10.4,3.9
		C401.7,472.8,400.3,477.1,400.3,483.1z"/>
	<path class="st0" d="M442.8,502.5v-39.9h14.8c3.3,0,5.9,0.2,7.6,0.6c2.5,0.5,4.6,1.5,6.3,2.9c2.3,1.8,4,4.1,5.1,6.8
		c1.1,2.8,1.7,5.9,1.7,9.5c0,3-0.4,5.7-1.1,8.1c-0.8,2.3-1.7,4.3-2.9,5.8c-1.2,1.5-2.5,2.7-3.9,3.6s-3.1,1.5-5.1,2s-4.3,0.7-6.9,0.7
		H442.8z M448.5,497.8h9.2c2.8,0,5.1-0.2,6.7-0.7s2.9-1.2,3.9-2.1c1.3-1.3,2.4-2.9,3.1-5.1c0.8-2.1,1.1-4.7,1.1-7.7
		c0-4.2-0.7-7.4-2.2-9.6s-3.3-3.7-5.4-4.5c-1.5-0.5-4-0.8-7.4-0.8h-9V497.8z"/>
	<path class="st0" d="M486.3,502.5v-39.9h31.1v4.7H492v12.2h23.8v4.7H492v13.6h26.4v4.7H486.3z"/>
</g>
</svg>
